<?xml version="1.0" encoding="UTF-8"?>
<svg xmlns="http://www.w3.org/2000/svg" xmlns:xlink="http://www.w3.org/1999/xlink" width="112.5pt" height="112.499997pt" viewBox="0 0 112.5 112.499997" version="1.2">
<defs>
<clipPath id="clip1">
  <path d="M 32.710938 35.121094 L 84 35.121094 L 84 76.882812 L 32.710938 76.882812 Z M 32.710938 35.121094 "/>
</clipPath>
<clipPath id="clip2">
  <path d="M 32.710938 22.289062 L 84 22.289062 L 84 36.066406 L 32.710938 36.066406 Z M 32.710938 22.289062 "/>
</clipPath>
<clipPath id="clip3">
  <path d="M 49 64 L 88 64 L 88 83 L 49 83 Z M 49 64 "/>
</clipPath>
<clipPath id="clip4">
  <path d="M 33.582031 57.761719 L 87.855469 64.601562 L 83.941406 95.675781 L 29.667969 88.835938 Z M 33.582031 57.761719 "/>
</clipPath>
<clipPath id="clip5">
  <path d="M 33.210938 57.714844 L 87.484375 64.554688 L 83.570312 95.628906 L 29.296875 88.789062 Z M 33.210938 57.714844 "/>
</clipPath>
<clipPath id="clip6">
  <path d="M 35 72 L 46 72 L 46 77 L 35 77 Z M 35 72 "/>
</clipPath>
<clipPath id="clip7">
  <path d="M 33.582031 57.761719 L 87.855469 64.601562 L 83.941406 95.675781 L 29.667969 88.835938 Z M 33.582031 57.761719 "/>
</clipPath>
<clipPath id="clip8">
  <path d="M 33.210938 57.714844 L 87.484375 64.554688 L 83.570312 95.628906 L 29.296875 88.789062 Z M 33.210938 57.714844 "/>
</clipPath>
<clipPath id="clip9">
  <path d="M 31 75 L 35 75 L 35 78 L 31 78 Z M 31 75 "/>
</clipPath>
<clipPath id="clip10">
  <path d="M 33.582031 57.761719 L 87.855469 64.601562 L 83.941406 95.675781 L 29.667969 88.835938 Z M 33.582031 57.761719 "/>
</clipPath>
<clipPath id="clip11">
  <path d="M 33.210938 57.714844 L 87.484375 64.554688 L 83.570312 95.628906 L 29.296875 88.789062 Z M 33.210938 57.714844 "/>
</clipPath>
<clipPath id="clip12">
  <path d="M 41 77 L 46 77 L 46 81 L 41 81 Z M 41 77 "/>
</clipPath>
<clipPath id="clip13">
  <path d="M 33.582031 57.761719 L 87.855469 64.601562 L 83.941406 95.675781 L 29.667969 88.835938 Z M 33.582031 57.761719 "/>
</clipPath>
<clipPath id="clip14">
  <path d="M 33.210938 57.714844 L 87.484375 64.554688 L 83.570312 95.628906 L 29.296875 88.789062 Z M 33.210938 57.714844 "/>
</clipPath>
<clipPath id="clip15">
  <path d="M 30 79 L 41 79 L 41 84 L 30 84 Z M 30 79 "/>
</clipPath>
<clipPath id="clip16">
  <path d="M 33.582031 57.761719 L 87.855469 64.601562 L 83.941406 95.675781 L 29.667969 88.835938 Z M 33.582031 57.761719 "/>
</clipPath>
<clipPath id="clip17">
  <path d="M 33.210938 57.714844 L 87.484375 64.554688 L 83.570312 95.628906 L 29.296875 88.789062 Z M 33.210938 57.714844 "/>
</clipPath>
<clipPath id="clip18">
  <path d="M 38 83 L 45 83 L 45 87 L 38 87 Z M 38 83 "/>
</clipPath>
<clipPath id="clip19">
  <path d="M 33.582031 57.761719 L 87.855469 64.601562 L 83.941406 95.675781 L 29.667969 88.835938 Z M 33.582031 57.761719 "/>
</clipPath>
<clipPath id="clip20">
  <path d="M 33.210938 57.714844 L 87.484375 64.554688 L 83.570312 95.628906 L 29.296875 88.789062 Z M 33.210938 57.714844 "/>
</clipPath>
<clipPath id="clip21">
  <path d="M 29 85 L 38 85 L 38 89 L 29 89 Z M 29 85 "/>
</clipPath>
<clipPath id="clip22">
  <path d="M 33.582031 57.761719 L 87.855469 64.601562 L 83.941406 95.675781 L 29.667969 88.835938 Z M 33.582031 57.761719 "/>
</clipPath>
<clipPath id="clip23">
  <path d="M 33.210938 57.714844 L 87.484375 64.554688 L 83.570312 95.628906 L 29.296875 88.789062 Z M 33.210938 57.714844 "/>
</clipPath>
<clipPath id="clip24">
  <path d="M 39 64 L 88 64 L 88 72 L 39 72 Z M 39 64 "/>
</clipPath>
<clipPath id="clip25">
  <path d="M 33.582031 57.761719 L 87.855469 64.601562 L 83.941406 95.675781 L 29.667969 88.835938 Z M 33.582031 57.761719 "/>
</clipPath>
<clipPath id="clip26">
  <path d="M 33.210938 57.714844 L 87.484375 64.554688 L 83.570312 95.628906 L 29.296875 88.789062 Z M 33.210938 57.714844 "/>
</clipPath>
<clipPath id="clip27">
  <path d="M 49 64 L 88 64 L 88 83 L 49 83 Z M 49 64 "/>
</clipPath>
<clipPath id="clip28">
  <path d="M 33.582031 57.761719 L 87.855469 64.601562 L 83.941406 95.675781 L 29.667969 88.835938 Z M 33.582031 57.761719 "/>
</clipPath>
<clipPath id="clip29">
  <path d="M 33.210938 57.714844 L 87.484375 64.554688 L 83.570312 95.628906 L 29.296875 88.789062 Z M 33.210938 57.714844 "/>
</clipPath>
<clipPath id="clip30">
  <path d="M 53 64 L 88 64 L 88 85 L 53 85 Z M 53 64 "/>
</clipPath>
<clipPath id="clip31">
  <path d="M 33.582031 57.761719 L 87.855469 64.601562 L 83.941406 95.675781 L 29.667969 88.835938 Z M 33.582031 57.761719 "/>
</clipPath>
<clipPath id="clip32">
  <path d="M 33.210938 57.714844 L 87.484375 64.554688 L 83.570312 95.628906 L 29.296875 88.789062 Z M 33.210938 57.714844 "/>
</clipPath>
<clipPath id="clip33">
  <path d="M 49 69 L 50 69 L 50 83 L 49 83 Z M 49 69 "/>
</clipPath>
<clipPath id="clip34">
  <path d="M 32.179688 69.621094 L 49.164062 71.761719 L 46.761719 90.820312 L 29.777344 88.679688 Z M 32.179688 69.621094 "/>
</clipPath>
<clipPath id="clip35">
  <path d="M 33.507812 58.183594 L 86.953125 64.917969 L 83.089844 95.578125 L 29.644531 88.84375 Z M 33.507812 58.183594 "/>
</clipPath>
<clipPath id="clip36">
  <path d="M 35 72 L 46 72 L 46 77 L 35 77 Z M 35 72 "/>
</clipPath>
<clipPath id="clip37">
  <path d="M 32.179688 69.621094 L 49.164062 71.761719 L 46.761719 90.820312 L 29.777344 88.679688 Z M 32.179688 69.621094 "/>
</clipPath>
<clipPath id="clip38">
  <path d="M 33.507812 58.183594 L 86.953125 64.917969 L 83.089844 95.578125 L 29.644531 88.84375 Z M 33.507812 58.183594 "/>
</clipPath>
<clipPath id="clip39">
  <path d="M 31 75 L 35 75 L 35 78 L 31 78 Z M 31 75 "/>
</clipPath>
<clipPath id="clip40">
  <path d="M 32.179688 69.621094 L 49.164062 71.761719 L 46.761719 90.820312 L 29.777344 88.679688 Z M 32.179688 69.621094 "/>
</clipPath>
<clipPath id="clip41">
  <path d="M 33.507812 58.183594 L 86.953125 64.917969 L 83.089844 95.578125 L 29.644531 88.84375 Z M 33.507812 58.183594 "/>
</clipPath>
<clipPath id="clip42">
  <path d="M 42 78 L 46 78 L 46 81 L 42 81 Z M 42 78 "/>
</clipPath>
<clipPath id="clip43">
  <path d="M 32.179688 69.621094 L 49.164062 71.761719 L 46.761719 90.820312 L 29.777344 88.679688 Z M 32.179688 69.621094 "/>
</clipPath>
<clipPath id="clip44">
  <path d="M 33.507812 58.183594 L 86.953125 64.917969 L 83.089844 95.578125 L 29.644531 88.84375 Z M 33.507812 58.183594 "/>
</clipPath>
<clipPath id="clip45">
  <path d="M 30 79 L 42 79 L 42 84 L 30 84 Z M 30 79 "/>
</clipPath>
<clipPath id="clip46">
  <path d="M 32.179688 69.621094 L 49.164062 71.761719 L 46.761719 90.820312 L 29.777344 88.679688 Z M 32.179688 69.621094 "/>
</clipPath>
<clipPath id="clip47">
  <path d="M 33.507812 58.183594 L 86.953125 64.917969 L 83.089844 95.578125 L 29.644531 88.84375 Z M 33.507812 58.183594 "/>
</clipPath>
<clipPath id="clip48">
  <path d="M 38 83 L 45 83 L 45 87 L 38 87 Z M 38 83 "/>
</clipPath>
<clipPath id="clip49">
  <path d="M 32.179688 69.621094 L 49.164062 71.761719 L 46.761719 90.820312 L 29.777344 88.679688 Z M 32.179688 69.621094 "/>
</clipPath>
<clipPath id="clip50">
  <path d="M 33.507812 58.183594 L 86.953125 64.917969 L 83.089844 95.578125 L 29.644531 88.84375 Z M 33.507812 58.183594 "/>
</clipPath>
<clipPath id="clip51">
  <path d="M 29 85 L 38 85 L 38 89 L 29 89 Z M 29 85 "/>
</clipPath>
<clipPath id="clip52">
  <path d="M 32.179688 69.621094 L 49.164062 71.761719 L 46.761719 90.820312 L 29.777344 88.679688 Z M 32.179688 69.621094 "/>
</clipPath>
<clipPath id="clip53">
  <path d="M 33.507812 58.183594 L 86.953125 64.917969 L 83.089844 95.578125 L 29.644531 88.84375 Z M 33.507812 58.183594 "/>
</clipPath>
<clipPath id="clip54">
  <path d="M 40 69 L 50 69 L 50 73 L 40 73 Z M 40 69 "/>
</clipPath>
<clipPath id="clip55">
  <path d="M 32.179688 69.621094 L 49.164062 71.761719 L 46.761719 90.820312 L 29.777344 88.679688 Z M 32.179688 69.621094 "/>
</clipPath>
<clipPath id="clip56">
  <path d="M 33.507812 58.183594 L 86.953125 64.917969 L 83.089844 95.578125 L 29.644531 88.84375 Z M 33.507812 58.183594 "/>
</clipPath>
</defs>
<g id="surface1">
<path style=" stroke:none;fill-rule:nonzero;fill:rgb(21.569824%,27.839661%,30.979919%);fill-opacity:1;" d="M 56.25 1.464844 C 54.457031 1.464844 52.664062 1.550781 50.878906 1.726562 C 49.09375 1.902344 47.320312 2.167969 45.5625 2.515625 C 43.800781 2.867188 42.0625 3.300781 40.347656 3.824219 C 38.628906 4.34375 36.941406 4.949219 35.285156 5.632812 C 33.625 6.320312 32.007812 7.085938 30.425781 7.933594 C 28.839844 8.777344 27.304688 9.699219 25.8125 10.695312 C 24.320312 11.695312 22.882812 12.761719 21.496094 13.898438 C 20.105469 15.039062 18.777344 16.242188 17.511719 17.511719 C 16.242188 18.777344 15.039062 20.105469 13.898438 21.496094 C 12.761719 22.882812 11.695312 24.320312 10.695312 25.8125 C 9.699219 27.304688 8.777344 28.839844 7.933594 30.425781 C 7.085938 32.007812 6.320312 33.625 5.632812 35.285156 C 4.949219 36.941406 4.34375 38.628906 3.824219 40.347656 C 3.300781 42.0625 2.867188 43.800781 2.515625 45.5625 C 2.167969 47.320312 1.902344 49.09375 1.726562 50.878906 C 1.550781 52.664062 1.464844 54.457031 1.464844 56.25 C 1.464844 58.042969 1.550781 59.835938 1.726562 61.621094 C 1.902344 63.40625 2.167969 65.179688 2.515625 66.9375 C 2.867188 68.699219 3.300781 70.4375 3.824219 72.152344 C 4.34375 73.871094 4.949219 75.558594 5.632812 77.214844 C 6.320312 78.875 7.085938 80.492188 7.933594 82.074219 C 8.777344 83.660156 9.699219 85.195312 10.695312 86.6875 C 11.695312 88.179688 12.761719 89.617188 13.898438 91.003906 C 15.039062 92.394531 16.242188 93.722656 17.511719 94.988281 C 18.777344 96.257812 20.105469 97.460938 21.496094 98.601562 C 22.882812 99.738281 24.320312 100.804688 25.8125 101.804688 C 27.304688 102.800781 28.839844 103.722656 30.425781 104.566406 C 32.007812 105.414062 33.625 106.179688 35.285156 106.867188 C 36.941406 107.550781 38.628906 108.15625 40.347656 108.675781 C 42.0625 109.199219 43.800781 109.632812 45.5625 109.984375 C 47.320312 110.332031 49.09375 110.597656 50.878906 110.773438 C 52.664062 110.949219 54.457031 111.035156 56.25 111.035156 C 58.042969 111.035156 59.835938 110.949219 61.621094 110.773438 C 63.40625 110.597656 65.179688 110.332031 66.9375 109.984375 C 68.699219 109.632812 70.4375 109.199219 72.152344 108.675781 C 73.871094 108.15625 75.558594 107.550781 77.214844 106.867188 C 78.875 106.179688 80.492188 105.414062 82.074219 104.566406 C 83.660156 103.722656 85.195312 102.800781 86.6875 101.804688 C 88.179688 100.804688 89.617188 99.738281 91.003906 98.601562 C 92.394531 97.460938 93.722656 96.257812 94.988281 94.988281 C 96.257812 93.722656 97.460938 92.394531 98.601562 91.003906 C 99.738281 89.617188 100.804688 88.179688 101.804688 86.6875 C 102.800781 85.195312 103.722656 83.660156 104.566406 82.074219 C 105.414062 80.492188 106.179688 78.875 106.867188 77.214844 C 107.550781 75.558594 108.15625 73.871094 108.675781 72.152344 C 109.199219 70.4375 109.632812 68.699219 109.984375 66.9375 C 110.332031 65.179688 110.597656 63.40625 110.773438 61.621094 C 110.949219 59.835938 111.035156 58.042969 111.035156 56.25 C 111.035156 54.457031 110.949219 52.664062 110.773438 50.878906 C 110.597656 49.09375 110.332031 47.320312 109.984375 45.5625 C 109.632812 43.800781 109.199219 42.0625 108.675781 40.347656 C 108.15625 38.628906 107.550781 36.941406 106.867188 35.285156 C 106.179688 33.625 105.414062 32.007812 104.566406 30.425781 C 103.722656 28.839844 102.800781 27.304688 101.804688 25.8125 C 100.804688 24.320312 99.738281 22.882812 98.601562 21.496094 C 97.460938 20.105469 96.257812 18.777344 94.988281 17.511719 C 93.722656 16.242188 92.394531 15.039062 91.003906 13.898438 C 89.617188 12.761719 88.179688 11.695312 86.6875 10.695312 C 85.195312 9.699219 83.660156 8.777344 82.074219 7.933594 C 80.492188 7.085938 78.875 6.320312 77.214844 5.632812 C 75.558594 4.949219 73.871094 4.34375 72.152344 3.824219 C 70.4375 3.300781 68.699219 2.867188 66.9375 2.515625 C 65.179688 2.167969 63.40625 1.902344 61.621094 1.726562 C 59.835938 1.550781 58.042969 1.464844 56.25 1.464844 Z M 56.25 1.464844 "/>
<g clip-path="url(#clip1)" clip-rule="nonzero">
<path style=" stroke:none;fill-rule:nonzero;fill:rgb(19.999695%,70.588684%,96.859741%);fill-opacity:1;" d="M 79.503906 58.328125 L 79.503906 22.191406 L 37.191406 22.191406 L 32.824219 24.785156 L 32.824219 76.894531 L 77.515625 76.894531 L 77.515625 72.246094 L 83.941406 72.246094 C 83.941406 72.246094 79.503906 68.667969 79.503906 58.328125 Z M 76.566406 50.523438 L 68.914062 50.523438 L 68.914062 42.296875 L 76.5625 42.296875 L 76.5625 50.523438 Z M 57.839844 32.800781 L 57.839844 41.03125 L 49.285156 41.03125 L 49.285156 32.800781 Z M 59.101562 32.800781 L 67.65625 32.800781 L 67.65625 41.03125 L 59.101562 41.03125 Z M 40.132812 32.800781 L 48.027344 32.800781 L 48.027344 41.03125 L 40.132812 41.03125 Z M 40.132812 42.296875 L 48.027344 42.296875 L 48.027344 50.523438 L 40.132812 50.523438 Z M 40.132812 51.789062 L 48.027344 51.789062 L 48.027344 58.332031 C 48.027344 58.921875 48.039062 59.480469 48.0625 60.015625 L 40.128906 60.015625 L 40.128906 51.789062 Z M 49.285156 58.332031 L 49.285156 51.789062 L 57.839844 51.789062 L 57.839844 58.332031 C 57.839844 58.921875 57.855469 59.480469 57.875 60.015625 L 49.324219 60.015625 C 49.300781 59.484375 49.285156 58.921875 49.285156 58.332031 Z M 49.285156 50.523438 L 49.285156 42.296875 L 57.839844 42.296875 L 57.839844 50.523438 Z M 59.101562 42.296875 L 67.65625 42.296875 L 67.65625 50.523438 L 59.101562 50.523438 Z M 76.566406 41.03125 L 68.914062 41.03125 L 68.914062 32.800781 L 76.566406 32.800781 Z M 48.136719 61.285156 C 48.46875 65.464844 49.5 67.890625 50.523438 69.292969 L 42.308594 69.292969 C 42.109375 69.113281 41.773438 68.738281 41.421875 68.003906 C 40.894531 66.898438 40.273438 64.859375 40.15625 61.285156 Z M 52.199219 69.292969 C 51.210938 68.378906 49.808594 66.230469 49.402344 61.285156 L 57.953125 61.285156 C 58.285156 65.464844 59.3125 67.890625 60.335938 69.292969 Z M 62.015625 69.292969 C 61.027344 68.378906 59.621094 66.230469 59.214844 61.285156 L 67.765625 61.285156 C 68.097656 65.464844 69.125 67.890625 70.152344 69.292969 Z M 59.136719 60.015625 C 59.113281 59.484375 59.101562 58.921875 59.101562 58.332031 L 59.101562 51.789062 L 67.65625 51.789062 L 67.65625 58.332031 C 67.65625 58.921875 67.667969 59.480469 67.691406 60.015625 Z M 68.914062 58.332031 L 68.914062 51.789062 L 76.566406 51.789062 L 76.566406 59.597656 C 76.566406 59.738281 76.566406 59.878906 76.570312 60.015625 L 68.953125 60.015625 C 68.929688 59.484375 68.914062 58.921875 68.914062 58.332031 Z M 74.578125 73.941406 L 35.761719 73.941406 L 35.761719 26.46875 L 37.191406 25.621094 L 37.191406 60.019531 C 37.191406 71.410156 41.628906 72.246094 41.628906 72.246094 L 74.578125 72.246094 Z M 77.519531 69.292969 L 71.828125 69.292969 C 70.839844 68.378906 69.4375 66.230469 69.03125 61.285156 L 76.601562 61.285156 C 76.734375 64.394531 77.246094 67.078125 78.125 69.292969 Z M 77.519531 69.292969 "/>
</g>
<g clip-path="url(#clip2)" clip-rule="nonzero">
<path style=" stroke:none;fill-rule:nonzero;fill:rgb(100%,100%,100%);fill-opacity:1;" d="M 79.503906 58.328125 L 79.503906 22.191406 L 37.191406 22.191406 L 32.824219 24.785156 L 32.824219 76.894531 L 77.515625 76.894531 L 77.515625 72.246094 L 83.941406 72.246094 C 83.941406 72.246094 79.503906 68.667969 79.503906 58.328125 Z M 76.566406 50.523438 L 68.914062 50.523438 L 68.914062 42.296875 L 76.5625 42.296875 L 76.5625 50.523438 Z M 57.839844 32.800781 L 57.839844 41.03125 L 49.285156 41.03125 L 49.285156 32.800781 Z M 59.101562 32.800781 L 67.65625 32.800781 L 67.65625 41.03125 L 59.101562 41.03125 Z M 40.132812 32.800781 L 48.027344 32.800781 L 48.027344 41.03125 L 40.132812 41.03125 Z M 40.132812 42.296875 L 48.027344 42.296875 L 48.027344 50.523438 L 40.132812 50.523438 Z M 40.132812 51.789062 L 48.027344 51.789062 L 48.027344 58.332031 C 48.027344 58.921875 48.039062 59.480469 48.0625 60.015625 L 40.128906 60.015625 L 40.128906 51.789062 Z M 49.285156 58.332031 L 49.285156 51.789062 L 57.839844 51.789062 L 57.839844 58.332031 C 57.839844 58.921875 57.855469 59.480469 57.875 60.015625 L 49.324219 60.015625 C 49.300781 59.484375 49.285156 58.921875 49.285156 58.332031 Z M 49.285156 50.523438 L 49.285156 42.296875 L 57.839844 42.296875 L 57.839844 50.523438 Z M 59.101562 42.296875 L 67.65625 42.296875 L 67.65625 50.523438 L 59.101562 50.523438 Z M 76.566406 41.03125 L 68.914062 41.03125 L 68.914062 32.800781 L 76.566406 32.800781 Z M 48.136719 61.285156 C 48.46875 65.464844 49.5 67.890625 50.523438 69.292969 L 42.308594 69.292969 C 42.109375 69.113281 41.773438 68.738281 41.421875 68.003906 C 40.894531 66.898438 40.273438 64.859375 40.15625 61.285156 Z M 52.199219 69.292969 C 51.210938 68.378906 49.808594 66.230469 49.402344 61.285156 L 57.953125 61.285156 C 58.285156 65.464844 59.3125 67.890625 60.335938 69.292969 Z M 62.015625 69.292969 C 61.027344 68.378906 59.621094 66.230469 59.214844 61.285156 L 67.765625 61.285156 C 68.097656 65.464844 69.125 67.890625 70.152344 69.292969 Z M 59.136719 60.015625 C 59.113281 59.484375 59.101562 58.921875 59.101562 58.332031 L 59.101562 51.789062 L 67.65625 51.789062 L 67.65625 58.332031 C 67.65625 58.921875 67.667969 59.480469 67.691406 60.015625 Z M 68.914062 58.332031 L 68.914062 51.789062 L 76.566406 51.789062 L 76.566406 59.597656 C 76.566406 59.738281 76.566406 59.878906 76.570312 60.015625 L 68.953125 60.015625 C 68.929688 59.484375 68.914062 58.921875 68.914062 58.332031 Z M 74.578125 73.941406 L 35.761719 73.941406 L 35.761719 26.46875 L 37.191406 25.621094 L 37.191406 60.019531 C 37.191406 71.410156 41.628906 72.246094 41.628906 72.246094 L 74.578125 72.246094 Z M 77.519531 69.292969 L 71.828125 69.292969 C 70.839844 68.378906 69.4375 66.230469 69.03125 61.285156 L 76.601562 61.285156 C 76.734375 64.394531 77.246094 67.078125 78.125 69.292969 Z M 77.519531 69.292969 "/>
</g>
<g clip-path="url(#clip3)" clip-rule="nonzero">
<g clip-path="url(#clip4)" clip-rule="nonzero">
<g clip-path="url(#clip5)" clip-rule="nonzero">
<path style=" stroke:none;fill-rule:nonzero;fill:rgb(0%,63.139343%,85.099792%);fill-opacity:1;" d="M 50.207031 71.867188 L 49.667969 82.207031 L 87.320312 64.578125 L 50.152344 71.832031 L 50.207031 71.867188 "/>
</g>
</g>
</g>
<g clip-path="url(#clip6)" clip-rule="nonzero">
<g clip-path="url(#clip7)" clip-rule="nonzero">
<g clip-path="url(#clip8)" clip-rule="nonzero">
<path style=" stroke:none;fill-rule:nonzero;fill:rgb(60.778809%,82.348633%,94.898987%);fill-opacity:1;" d="M 44.789062 72.359375 L 36.332031 74.707031 C 35.871094 74.835938 35.605469 75.3125 35.730469 75.769531 C 35.828125 76.113281 36.121094 76.347656 36.453125 76.390625 C 36.566406 76.402344 36.679688 76.398438 36.792969 76.363281 L 45.253906 74.015625 C 45.710938 73.886719 45.980469 73.410156 45.855469 72.957031 C 45.726562 72.5 45.25 72.230469 44.789062 72.359375 "/>
</g>
</g>
</g>
<g clip-path="url(#clip9)" clip-rule="nonzero">
<g clip-path="url(#clip10)" clip-rule="nonzero">
<g clip-path="url(#clip11)" clip-rule="nonzero">
<path style=" stroke:none;fill-rule:nonzero;fill:rgb(60.778809%,82.348633%,94.898987%);fill-opacity:1;" d="M 31.78125 77.6875 C 31.894531 77.703125 32.007812 77.699219 32.121094 77.664062 L 34.058594 77.125 C 34.511719 77 34.78125 76.527344 34.652344 76.066406 C 34.53125 75.609375 34.050781 75.339844 33.59375 75.46875 L 31.660156 76.007812 C 31.199219 76.132812 30.929688 76.609375 31.058594 77.070312 C 31.15625 77.410156 31.449219 77.644531 31.78125 77.6875 "/>
</g>
</g>
</g>
<g clip-path="url(#clip12)" clip-rule="nonzero">
<g clip-path="url(#clip13)" clip-rule="nonzero">
<g clip-path="url(#clip14)" clip-rule="nonzero">
<path style=" stroke:none;fill-rule:nonzero;fill:rgb(60.778809%,82.348633%,94.898987%);fill-opacity:1;" d="M 44.082031 77.976562 L 42.527344 78.410156 C 42.070312 78.539062 41.800781 79.015625 41.929688 79.472656 C 42.027344 79.816406 42.316406 80.050781 42.652344 80.09375 C 42.761719 80.105469 42.875 80.101562 42.988281 80.066406 L 44.546875 79.636719 C 45.003906 79.507812 45.269531 79.035156 45.148438 78.578125 C 45.019531 78.117188 44.542969 77.851562 44.082031 77.976562 "/>
</g>
</g>
</g>
<g clip-path="url(#clip15)" clip-rule="nonzero">
<g clip-path="url(#clip16)" clip-rule="nonzero">
<g clip-path="url(#clip17)" clip-rule="nonzero">
<path style=" stroke:none;fill-rule:nonzero;fill:rgb(60.778809%,82.348633%,94.898987%);fill-opacity:1;" d="M 31.074219 83.3125 C 31.183594 83.328125 31.300781 83.320312 31.410156 83.289062 L 40.316406 80.8125 C 40.773438 80.6875 41.042969 80.210938 40.914062 79.75 C 40.789062 79.296875 40.3125 79.03125 39.855469 79.15625 L 30.949219 81.628906 C 30.492188 81.757812 30.222656 82.230469 30.351562 82.6875 C 30.449219 83.035156 30.738281 83.269531 31.074219 83.3125 "/>
</g>
</g>
</g>
<g clip-path="url(#clip18)" clip-rule="nonzero">
<g clip-path="url(#clip19)" clip-rule="nonzero">
<g clip-path="url(#clip20)" clip-rule="nonzero">
<path style=" stroke:none;fill-rule:nonzero;fill:rgb(60.778809%,82.348633%,94.898987%);fill-opacity:1;" d="M 43.371094 83.601562 L 38.65625 84.914062 C 38.203125 85.042969 37.933594 85.515625 38.0625 85.972656 C 38.15625 86.316406 38.453125 86.554688 38.785156 86.597656 C 38.890625 86.609375 39.011719 86.601562 39.125 86.570312 L 43.839844 85.261719 C 44.292969 85.132812 44.5625 84.660156 44.4375 84.203125 C 44.308594 83.742188 43.832031 83.476562 43.371094 83.601562 "/>
</g>
</g>
</g>
<g clip-path="url(#clip21)" clip-rule="nonzero">
<g clip-path="url(#clip22)" clip-rule="nonzero">
<g clip-path="url(#clip23)" clip-rule="nonzero">
<path style=" stroke:none;fill-rule:nonzero;fill:rgb(60.778809%,82.348633%,94.898987%);fill-opacity:1;" d="M 36.082031 85.628906 L 30.242188 87.253906 C 29.78125 87.382812 29.515625 87.855469 29.640625 88.3125 C 29.738281 88.65625 30.03125 88.894531 30.363281 88.9375 C 30.476562 88.953125 30.589844 88.941406 30.703125 88.914062 L 36.546875 87.285156 C 37.007812 87.160156 37.277344 86.683594 37.148438 86.226562 C 37.019531 85.769531 36.542969 85.5 36.082031 85.628906 "/>
</g>
</g>
</g>
<g clip-path="url(#clip24)" clip-rule="nonzero">
<g clip-path="url(#clip25)" clip-rule="nonzero">
<g clip-path="url(#clip26)" clip-rule="nonzero">
<path style=" stroke:none;fill-rule:nonzero;fill:rgb(100%,100%,100%);fill-opacity:1;" d="M 87.320312 64.578125 L 39.984375 64.867188 L 50.207031 71.867188 Z M 87.320312 64.578125 "/>
</g>
</g>
</g>
<g clip-path="url(#clip27)" clip-rule="nonzero">
<g clip-path="url(#clip28)" clip-rule="nonzero">
<g clip-path="url(#clip29)" clip-rule="nonzero">
<path style=" stroke:none;fill-rule:nonzero;fill:rgb(19.999695%,70.588684%,96.859741%);fill-opacity:1;" d="M 53.351562 74.023438 L 49.667969 82.207031 L 87.320312 64.578125 Z M 53.351562 74.023438 "/>
</g>
</g>
</g>
<g clip-path="url(#clip30)" clip-rule="nonzero">
<g clip-path="url(#clip31)" clip-rule="nonzero">
<g clip-path="url(#clip32)" clip-rule="nonzero">
<path style=" stroke:none;fill-rule:nonzero;fill:rgb(100%,100%,100%);fill-opacity:1;" d="M 53.351562 74.023438 L 68.648438 84.496094 L 87.320312 64.578125 Z M 53.351562 74.023438 "/>
</g>
</g>
</g>
<g clip-path="url(#clip33)" clip-rule="nonzero">
<g clip-path="url(#clip34)" clip-rule="nonzero">
<g clip-path="url(#clip35)" clip-rule="nonzero">
<path style=" stroke:none;fill-rule:nonzero;fill:rgb(100%,100%,100%);fill-opacity:1;" d="M 50.242188 72.140625 L 49.710938 82.34375 L 86.789062 64.941406 L 50.1875 72.109375 L 50.242188 72.140625 "/>
</g>
</g>
</g>
<g clip-path="url(#clip36)" clip-rule="nonzero">
<g clip-path="url(#clip37)" clip-rule="nonzero">
<g clip-path="url(#clip38)" clip-rule="nonzero">
<path style=" stroke:none;fill-rule:nonzero;fill:rgb(100%,100%,100%);fill-opacity:1;" d="M 44.90625 72.628906 L 36.578125 74.949219 C 36.125 75.074219 35.863281 75.542969 35.988281 75.996094 C 36.082031 76.335938 36.371094 76.566406 36.699219 76.609375 C 36.808594 76.621094 36.921875 76.617188 37.03125 76.582031 L 45.367188 74.265625 C 45.8125 74.136719 46.078125 73.667969 45.957031 73.21875 C 45.832031 72.765625 45.359375 72.503906 44.90625 72.628906 "/>
</g>
</g>
</g>
<g clip-path="url(#clip39)" clip-rule="nonzero">
<g clip-path="url(#clip40)" clip-rule="nonzero">
<g clip-path="url(#clip41)" clip-rule="nonzero">
<path style=" stroke:none;fill-rule:nonzero;fill:rgb(100%,100%,100%);fill-opacity:1;" d="M 32.097656 77.890625 C 32.207031 77.90625 32.320312 77.902344 32.429688 77.867188 L 34.339844 77.335938 C 34.789062 77.210938 35.050781 76.742188 34.925781 76.289062 C 34.804688 75.839844 34.332031 75.574219 33.878906 75.699219 L 31.976562 76.230469 C 31.523438 76.355469 31.261719 76.828125 31.386719 77.28125 C 31.480469 77.617188 31.769531 77.847656 32.097656 77.890625 "/>
</g>
</g>
</g>
<g clip-path="url(#clip42)" clip-rule="nonzero">
<g clip-path="url(#clip43)" clip-rule="nonzero">
<g clip-path="url(#clip44)" clip-rule="nonzero">
<path style=" stroke:none;fill-rule:nonzero;fill:rgb(100%,100%,100%);fill-opacity:1;" d="M 44.207031 78.171875 L 42.679688 78.601562 C 42.226562 78.726562 41.960938 79.195312 42.089844 79.648438 C 42.183594 79.988281 42.472656 80.21875 42.800781 80.261719 C 42.910156 80.273438 43.023438 80.269531 43.132812 80.234375 L 44.667969 79.808594 C 45.117188 79.683594 45.378906 79.21875 45.257812 78.765625 C 45.132812 78.3125 44.660156 78.046875 44.207031 78.171875 "/>
</g>
</g>
</g>
<g clip-path="url(#clip45)" clip-rule="nonzero">
<g clip-path="url(#clip46)" clip-rule="nonzero">
<g clip-path="url(#clip47)" clip-rule="nonzero">
<path style=" stroke:none;fill-rule:nonzero;fill:rgb(100%,100%,100%);fill-opacity:1;" d="M 31.398438 83.441406 C 31.507812 83.453125 31.621094 83.445312 31.730469 83.414062 L 40.5 80.972656 C 40.953125 80.847656 41.214844 80.378906 41.089844 79.925781 C 40.964844 79.476562 40.5 79.210938 40.046875 79.339844 L 31.277344 81.78125 C 30.824219 81.90625 30.5625 82.371094 30.6875 82.824219 C 30.78125 83.167969 31.070312 83.398438 31.398438 83.441406 "/>
</g>
</g>
</g>
<g clip-path="url(#clip48)" clip-rule="nonzero">
<g clip-path="url(#clip49)" clip-rule="nonzero">
<g clip-path="url(#clip50)" clip-rule="nonzero">
<path style=" stroke:none;fill-rule:nonzero;fill:rgb(100%,100%,100%);fill-opacity:1;" d="M 43.507812 83.722656 L 38.867188 85.019531 C 38.417969 85.144531 38.15625 85.609375 38.28125 86.0625 C 38.371094 86.402344 38.664062 86.636719 38.992188 86.679688 C 39.097656 86.691406 39.214844 86.683594 39.324219 86.652344 L 43.96875 85.359375 C 44.414062 85.230469 44.679688 84.765625 44.558594 84.3125 C 44.433594 83.863281 43.960938 83.597656 43.507812 83.722656 "/>
</g>
</g>
</g>
<g clip-path="url(#clip51)" clip-rule="nonzero">
<g clip-path="url(#clip52)" clip-rule="nonzero">
<g clip-path="url(#clip53)" clip-rule="nonzero">
<path style=" stroke:none;fill-rule:nonzero;fill:rgb(100%,100%,100%);fill-opacity:1;" d="M 36.332031 85.722656 L 30.578125 87.332031 C 30.125 87.457031 29.863281 87.921875 29.988281 88.375 C 30.082031 88.710938 30.371094 88.949219 30.699219 88.988281 C 30.808594 89.003906 30.921875 88.996094 31.03125 88.964844 L 36.789062 87.359375 C 37.242188 87.234375 37.503906 86.765625 37.378906 86.316406 C 37.253906 85.863281 36.785156 85.597656 36.332031 85.722656 "/>
</g>
</g>
</g>
<g clip-path="url(#clip54)" clip-rule="nonzero">
<g clip-path="url(#clip55)" clip-rule="nonzero">
<g clip-path="url(#clip56)" clip-rule="nonzero">
<path style=" stroke:none;fill-rule:nonzero;fill:rgb(100%,100%,100%);fill-opacity:1;" d="M 86.789062 64.941406 L 40.175781 65.242188 L 50.242188 72.140625 Z M 86.789062 64.941406 "/>
</g>
</g>
</g>
</g>
</svg>
